<svg width="56" height="56" viewBox="0 0 56 56" fill="none" xmlns="http://www.w3.org/2000/svg">
<path fill-rule="evenodd" clip-rule="evenodd" d="M28 0C8.4 0 0 7 0 28C0 49 8.4 56 28 56C47.6 56 56 49 56 28C56 7 47.6 0 28 0Z"/>
<path d="M0.5 28C0.5 17.5477 2.59385 10.7188 6.99655 6.48542C11.4036 2.24788 18.2378 0.5 28 0.5C37.7622 0.5 44.5964 2.24788 49.0034 6.48542C53.4062 10.7188 55.5 17.5477 55.5 28C55.5 38.4523 53.4062 45.2812 49.0034 49.5146C44.5964 53.7521 37.7622 55.5 28 55.5C18.2378 55.5 11.4036 53.7521 6.99655 49.5146C2.59385 45.2812 0.5 38.4523 0.5 28Z" stroke="#000"/>
</svg>
