<svg width="20" height="20" viewBox="0 0 20 20" fill="none" xmlns="http://www.w3.org/2000/svg">
<path d="M3.33334 2.57001V6.28835V6.36335V6.28835C3.33334 7.35001 3.77084 8.29001 4.44917 8.89835C4.78084 9.19585 5 9.59751 5 10.0433V16.25C5 16.94 5.56 17.5 6.25 17.5C6.94 17.5 7.5 16.94 7.5 16.25V10.0433C7.5 9.59751 7.71917 9.19585 8.05084 8.89835C8.72917 8.29001 9.16667 7.35001 9.16667 6.28835V2.57001V6.28835" stroke="#FD9B28" stroke-width="1.5" stroke-linecap="round" stroke-linejoin="round"/>
<path d="M6.25 6.66667V2.5" stroke="#FD9B28" stroke-width="1.5" stroke-linecap="round" stroke-linejoin="round"/>
<path d="M16.25 3.37667C16.25 2.91667 15.8767 2.54333 15.4167 2.54333H14.5833C13.2025 2.54333 12.0833 3.6625 12.0833 5.04334V10.0433C12.0833 11.13 12.7808 12.0458 13.75 12.39V16.25C13.75 16.94 14.31 17.5 15 17.5C15.69 17.5 16.25 16.94 16.25 16.25V12.5433V3.37667Z" stroke="#FD9B28" stroke-width="1.5" stroke-linecap="round" stroke-linejoin="round"/>
</svg>
